<svg width="284" height="140" viewBox="0 0 284 140" fill="none" xmlns="http://www.w3.org/2000/svg">
<rect width="284" height="140" fill="white"/>
<rect width="44" height="44" fill="#C0AB57"/>
<path d="M19 33.4H23.416V11H19V33.4Z" fill="white"/>
<rect width="44" height="44" transform="translate(48)" fill="#6D7173"/>
<path d="M73.96 24.664L64.36 11H61V33.4H65.416V19.704L75.016 33.4H78.376V11H73.96V24.664Z" fill="white"/>
<rect width="44" height="44" transform="translate(96)" fill="#6D7173"/>
<path d="M124.376 11H111V33.4H115.416V24.76H124.12V20.536H115.416V15.224H124.376V11Z" fill="white"/>
<rect width="44" height="44" transform="translate(144)" fill="#6D7173"/>
<path d="M174.056 33.4L169.096 24.952C171.688 23.768 173.416 21.208 173.416 18.424C173.416 16.376 172.68 14.616 171.24 13.176C169.8 11.736 168.04 11 165.96 11H157V33.4H161.416V25.624H164.776L169.288 33.4H174.056ZM165.96 15.128C167.624 15.128 169 16.6 169 18.424C169 20.248 167.624 21.752 165.96 21.752H161.416V15.128H165.96Z" fill="white"/>
<rect width="44" height="44" transform="translate(192)" fill="#6D7173"/>
<path d="M224.184 33.4L216.312 11H210.84L203 33.4H207.768L209.112 29.368H218.04L219.384 33.4H224.184ZM213.592 16.088L216.664 25.24H210.52L213.592 16.088Z" fill="white"/>
<rect width="44" height="44" transform="translate(0 48)" fill="#6D7173"/>
<path d="M22.648 81.296C26.744 81.296 30.36 79.248 32.28 76.016L28.472 73.808C27.416 75.76 25.208 76.976 22.648 76.976C20.472 76.976 18.712 76.304 17.368 74.928C16.056 73.552 15.384 71.792 15.384 69.648C15.384 67.472 16.056 65.712 17.368 64.336C18.712 62.96 20.472 62.288 22.648 62.288C25.208 62.288 27.352 63.472 28.472 65.488L32.28 63.28C30.36 60.048 26.712 58 22.648 58C19.288 58 16.504 59.12 14.296 61.36C12.088 63.568 11 66.352 11 69.648C11 72.944 12.088 75.696 14.296 77.936C16.504 80.176 19.288 81.296 22.648 81.296Z" fill="white"/>
<rect width="44" height="44" transform="translate(48 48)" fill="#C0AB57"/>
<path d="M68.416 59H64V81.4H76.96V77.176H68.416V59Z" fill="white"/>
<rect width="44" height="44" transform="translate(96 48)" fill="#6D7173"/>
<path d="M125.872 77.936C128.144 75.664 129.264 72.912 129.264 69.648C129.264 66.384 128.144 63.632 125.872 61.392C123.6 59.12 120.848 58 117.616 58C114.384 58 111.632 59.12 109.36 61.392C107.12 63.632 106 66.384 106 69.648C106 72.912 107.12 75.664 109.36 77.936C111.632 80.176 114.384 81.296 117.616 81.296C120.848 81.296 123.6 80.176 125.872 77.936ZM112.464 74.928C111.088 73.552 110.384 71.792 110.384 69.648C110.384 67.504 111.088 65.744 112.464 64.368C113.84 62.992 115.568 62.288 117.616 62.288C119.664 62.288 121.392 62.992 122.768 64.368C124.144 65.744 124.848 67.504 124.848 69.648C124.848 71.792 124.144 73.552 122.768 74.928C121.392 76.304 119.664 76.976 117.616 76.976C115.568 76.976 113.84 76.304 112.464 74.928Z" fill="white"/>
<rect width="44" height="44" transform="translate(144 48)" fill="#6B9E5F"/>
<path d="M166.544 80.848C169.072 80.848 171.12 80.144 172.72 78.736C174.32 77.328 175.12 75.44 175.12 73.072V58H170.704V72.72C170.704 75.056 169.392 76.528 166.544 76.528C163.696 76.528 162.384 75.056 162.384 72.72V58H158V73.072C158 75.44 158.8 77.328 160.4 78.736C162 80.144 164.048 80.848 166.544 80.848Z" fill="white"/>
<rect width="44" height="44" transform="translate(192 48)" fill="#6D7173"/>
<path d="M204 58V80.4H212.896C215.968 80.4 218.528 79.312 220.576 77.168C222.656 75.024 223.68 72.368 223.68 69.2C223.68 66.032 222.656 63.376 220.576 61.232C218.528 59.088 215.968 58 212.896 58H204ZM208.416 76.176V62.224H212.896C214.848 62.224 216.416 62.864 217.632 64.176C218.848 65.456 219.456 67.12 219.456 69.2C219.456 71.28 218.848 72.944 217.632 74.256C216.416 75.536 214.848 76.176 212.896 76.176H208.416Z" fill="white"/>
<rect width="44" height="44" transform="translate(0 96)" fill="#6B9E5F"/>
<path d="M14 107V129.4H18.416V122.04H22.352C24.496 122.04 26.32 121.304 27.792 119.864C29.264 118.424 30 116.632 30 114.52C30 112.408 29.264 110.616 27.792 109.176C26.32 107.736 24.496 107 22.352 107H14ZM18.416 117.912V111.128H22.352C24.24 111.128 25.616 112.568 25.616 114.52C25.616 116.44 24.24 117.912 22.352 117.912H18.416Z" fill="white"/>
<rect width="44" height="44" transform="translate(48 96)" fill="#6B9E5F"/>
<path d="M69.544 129.848C72.072 129.848 74.12 129.144 75.72 127.736C77.32 126.328 78.12 124.44 78.12 122.072V107H73.704V121.72C73.704 124.056 72.392 125.528 69.544 125.528C66.696 125.528 65.384 124.056 65.384 121.72V107H61V122.072C61 124.44 61.8 126.328 63.4 127.736C65 129.144 67.048 129.848 69.544 129.848Z" fill="white"/>
<rect width="44" height="44" transform="translate(96 96)" fill="#6B9E5F"/>
<path d="M116.416 107H112V129.4H124.96V125.176H116.416V107Z" fill="white"/>
<rect width="44" height="44" transform="translate(144 96)" fill="#6B9E5F"/>
<path d="M165.544 129.848C168.072 129.848 170.12 129.144 171.72 127.736C173.32 126.328 174.12 124.44 174.12 122.072V107H169.704V121.72C169.704 124.056 168.392 125.528 165.544 125.528C162.696 125.528 161.384 124.056 161.384 121.72V107H157V122.072C157 124.44 157.8 126.328 159.4 127.736C161 129.144 163.048 129.848 165.544 129.848Z" fill="white"/>
<rect width="44" height="44" transform="translate(192 96)" fill="#6B9E5F"/>
<path d="M220.376 107L213.976 117.592L207.544 107H203V129.4H207.416V114.904L213.72 125.272H214.232L220.536 114.872V129.4H224.92V107H220.376Z" fill="white"/>
<rect width="44" height="44" transform="translate(240 96)" fill="#6B9E5F"/>
<path d="M260 129.4H264.416V107H260V129.4Z" fill="white"/>
</svg>
